<svg width="26" height="25" viewBox="0 0 26 25" fill="none" xmlns="http://www.w3.org/2000/svg">
<path d="M19.1865 13.1201C19.1768 11.3281 19.9873 9.97559 21.6279 8.97949C20.71 7.66602 19.3232 6.94336 17.4922 6.80176C15.7588 6.66504 13.8643 7.8125 13.1709 7.8125C12.4385 7.8125 10.7588 6.85059 9.44043 6.85059C6.71582 6.89453 3.82031 9.02344 3.82031 13.3545C3.82031 14.6338 4.05469 15.9554 4.52344 17.3193C5.14844 19.1113 7.4043 23.5059 9.75781 23.4326C10.9883 23.4033 11.8574 22.5586 13.459 22.5586C15.0117 22.5586 15.8174 23.4326 17.1895 23.4326C19.5625 23.3984 21.6035 19.4043 22.1992 17.6074C19.0156 16.1084 19.1865 13.2129 19.1865 13.1201ZM16.4229 5.10254C17.7559 3.52051 17.6338 2.08008 17.5947 1.5625C16.418 1.63086 15.0557 2.36328 14.2793 3.2666C13.4248 4.2334 12.9219 5.42969 13.0293 6.77734C14.3037 6.875 15.4658 6.2207 16.4229 5.10254Z" fill="white"/>
</svg>
