<svg width="28" height="28" viewBox="0 0 28 28" fill="none" xmlns="http://www.w3.org/2000/svg">
<path d="M26.32 14.2917C26.32 13.3817 26.2383 12.5067 26.0867 11.6667H14V16.6367H20.9067C20.6033 18.235 19.6933 19.5883 18.3283 20.4983V23.73H22.4933C24.92 21.49 26.32 18.2 26.32 14.2917Z" fill="#4285F4"/>
<path d="M14 26.8333C17.465 26.8333 20.37 25.69 22.4933 23.73L18.3283 20.4983C17.185 21.2683 15.7267 21.735 14 21.735C10.6633 21.735 7.82833 19.4833 6.81333 16.45H2.54333V19.7633C4.655 23.9517 8.98333 26.8333 14 26.8333Z" fill="#34A853"/>
<path d="M6.81335 16.4383C6.55669 15.6683 6.40502 14.8517 6.40502 14C6.40502 13.1483 6.55669 12.3317 6.81335 11.5617V8.24833H2.54335C1.66835 9.975 1.16669 11.9233 1.16669 14C1.16669 16.0767 1.66835 18.025 2.54335 19.7517L5.86835 17.1617L6.81335 16.4383Z" fill="#FBBC05"/>
<path d="M14 6.27667C15.89 6.27667 17.57 6.93 18.9117 8.19L22.5867 4.515C20.3583 2.43833 17.465 1.16667 14 1.16667C8.98333 1.16667 4.655 4.04833 2.54333 8.24833L6.81333 11.5617C7.82833 8.52833 10.6633 6.27667 14 6.27667Z" fill="#EA4335"/>
</svg>
